<svg fill="#000000" width="40px" height="40px" viewBox="0 0 1.6 1.6" data-name="Layer 2" id="Layer_2" xmlns="http://www.w3.org/2000/svg"><title/><path d="M0.905 0.32a0.06 0.06 0 0 0 -0.032 0 0.075 0.075 0 0 0 -0.019 0c-0.237 0.009 -0.433 0.091 -0.433 0.358a0.688 0.688 0 0 0 0.339 0.591 0.057 0.057 0 0 0 0.081 -0.018c0.174 -0.122 0.35 -0.321 0.379 -0.54 0.025 -0.199 -0.134 -0.35 -0.314 -0.39m-0.12 0.814a0.55 0.55 0 0 1 -0.224 -0.332 0.408 0.408 0 0 1 0 -0.227c0.05 -0.129 0.187 -0.128 0.296 -0.132a0.06 0.06 0 0 0 0.017 -0.003c0.413 0.092 0.127 0.534 -0.089 0.694"/><path d="M0.9 0.567a0.1 0.1 0 0 0 -0.068 -0.013 0.064 0.064 0 0 0 -0.038 -0.004 0.159 0.159 0 0 0 -0.122 0.188 0.167 0.167 0 0 0 0.197 0.129 0.15 0.15 0 0 0 0.1 -0.196A0.183 0.183 0 0 0 0.9 0.567m-0.073 0.178a0.036 0.036 0 0 1 -0.022 -0.061 0.063 0.063 0 0 0 0.036 0l0.004 0.008a0.115 0.115 0 0 1 0.012 0.033c0.003 0.013 -0.009 0.025 -0.028 0.021Z"/></svg>